<?xml version="1.0" encoding="UTF-8" standalone="no"?>
<!-- Created with Inkscape (http://www.inkscape.org/) -->

<svg
   width="112.13631mm"
   height="103.17974mm"
   viewBox="0 0 112.13632 103.17974"
   version="1.1"
   id="svg1"
   xml:space="preserve"
   inkscape:version="1.4-beta3 (01c8a1c, 2024-08-28, custom)"
   sodipodi:docname="drawing.svg"
   inkscape:export-filename="drawing.png"
   inkscape:export-xdpi="96"
   inkscape:export-ydpi="96"
   xmlns:inkscape="http://www.inkscape.org/namespaces/inkscape"
   xmlns:sodipodi="http://sodipodi.sourceforge.net/DTD/sodipodi-0.dtd"
   xmlns="http://www.w3.org/2000/svg"
   xmlns:svg="http://www.w3.org/2000/svg"><sodipodi:namedview
     id="namedview1"
     pagecolor="#ffffff"
     bordercolor="#000000"
     borderopacity="0.25"
     inkscape:showpageshadow="2"
     inkscape:pageopacity="0.0"
     inkscape:pagecheckerboard="0"
     inkscape:deskcolor="#d1d1d1"
     inkscape:document-units="mm"
     inkscape:zoom="1.4770342"
     inkscape:cx="260.99599"
     inkscape:cy="185.84539"
     inkscape:window-width="1920"
     inkscape:window-height="1009"
     inkscape:window-x="-8"
     inkscape:window-y="-8"
     inkscape:window-maximized="1"
     inkscape:current-layer="layer1" /><defs
     id="defs1" /><g
     inkscape:label="Layer 1"
     inkscape:groupmode="layer"
     id="layer1"
     transform="translate(-40.583565,-52.820526)"><rect
       style="fill:#ffffff;fill-opacity:1;stroke:none;stroke-width:2.69638"
       id="rect1"
       width="112.13631"
       height="103.17974"
       x="40.583565"
       y="52.820526" /><path
       style="fill:none;stroke:#000000;stroke-width:0.513001;stroke-opacity:1"
       d="M 70.060438,154.80801 V 84.128892 H 43.714105 V 65.38246 h 75.239055 c 0,0 10.62085,-2.147802 16.77159,9.247772 7.13007,13.20999 0.87103,23.254942 0.87103,23.254942 l -32.08244,35.389766 h 39.51951 l -0.75999,21.27974 H 81.966958 l 0.0435,-75.99905 h 33.396122 c 0,0 3.98215,-0.608605 7.07172,6.345676 2.80815,6.320831 0.0215,10.120784 0.0215,10.120784 l -33.439592,33.94624 v 19.50642"
       id="path7"
       sodipodi:nodetypes="cccccscccccccsccc" /><path
       style="fill:none;stroke:#000000;stroke-width:0.513001;stroke-opacity:1"
       d="M 89.186873,148.22143 H 137.44627 V 139.6082 H 96.406778 l 0.25333,-6.83991 34.579572,-34.579571 c 0,0 1.7876,-2.397956 1.89998,-6.45992 0.51965,-18.781989 -9.62655,-21.279734 -9.62655,-21.279734 H 48.020716 v 9.879877 h 26.093002 v 74.269198 h -4.05328"
       id="path8"
       sodipodi:nodetypes="ccccccscccccc" /><path
       style="fill:none;stroke:#000000;stroke-width:0.513001;stroke-opacity:1"
       d="m 87.568288,82.579612 25.201352,0.126665 c 0,0 3.32707,-0.978252 5.78467,3.709296 2.4029,4.583218 -0.1484,7.449323 -0.1484,7.449323 l -31.038482,29.265174 0.12667,-40.550458"
       id="path9"
       sodipodi:nodetypes="ccsccc" /><path
       style="fill:#348b85;fill-opacity:1;stroke:#000000;stroke-width:0.245591;stroke-opacity:1"
       d="M 70.440436,119.08846 V 83.875563 H 57.267268 44.094098 v -9.119886 -9.119886 l 38.031192,-0.03167 c 20.91716,-0.01741 38.65819,-0.01892 39.42451,-0.0033 5.98294,0.121764 11.13739,3.712599 14.25928,9.933708 3.2898,6.555676 3.95191,14.14051 1.78153,20.292702 -0.83741,2.37372 0.0471,0.558881 -17.39914,19.725469 l -16.3045,17.91225 19.88294,0.0321 19.88295,0.0321 0.005,0.41127 c 0.003,0.22619 -0.15185,4.89996 -0.34322,10.38614 l -0.34795,9.97487 H 112.65668 82.346956 v -37.7462 -37.746186 h 16.693178 c 18.420926,0 17.481146,-0.03967 18.884556,0.797018 2.15914,1.287235 4.28908,4.61885 5.15894,8.069537 0.18107,0.718294 0.50623,1.382483 0.50018,2.723298 -0.007,1.572496 -0.31504,1.888064 -0.61537,2.786634 -0.18627,0.557327 -0.43917,1.163365 -0.56199,1.346756 -0.12283,0.183388 -7.76148,7.987033 -16.97478,17.341433 l -16.75146,17.00799 v 9.79656 9.79657 h 24.57303 24.57302 v -4.55995 -4.55994 H 117.29293 96.759595 l 0.08862,-3.19829 0.08863,-3.1983 17.446575,-17.47978 c 17.0369,-17.069332 17.45583,-17.500598 17.84132,-18.366431 1.00628,-2.260214 1.3672,-4.596548 1.23272,-7.979902 -0.24174,-6.082374 -1.44102,-10.566577 -3.76025,-14.059823 -1.27201,-1.915917 -3.4926,-3.876776 -5.23712,-4.624565 -0.58265,-0.249751 -0.93442,-0.252042 -38.703682,-0.252042 h -38.11569 v 5.193268 5.193268 h 13.046504 13.046503 v 36.859537 36.85954 H 72.087083 70.440436 Z M 102.88111,108.9895 c 8.5958,-8.09723 15.81455,-14.987198 16.04168,-15.311051 0.69681,-0.993576 0.95876,-2.106234 0.88643,-3.765158 -0.049,-1.124405 -0.13327,-1.609257 -0.41083,-2.364441 -0.78671,-2.140453 -2.28917,-4.021254 -3.80185,-4.759188 l -0.75999,-0.370747 -13.6165,-0.07944 c -7.773131,-0.04535 -13.634614,-0.03176 -13.658715,0.03167 -0.02323,0.06111 -0.122973,0.111106 -0.221666,0.111106 -0.153045,0 -0.179453,1.262338 -0.179514,8.58156 -4e-5,4.719857 -0.038,14.018639 -0.08435,20.663969 -0.05767,8.2686 -0.0431,12.06687 0.04616,12.03318 0.07173,-0.0271 7.16335,-6.67423 15.759145,-14.77146 z"
       id="path10"
       sodipodi:nodetypes="ccccccscsssccccscccccssssssscccccccccccssssssccccccccccssssscsssssss" /><ellipse
       style="fill:#daedeb;fill-opacity:1;stroke:#000000;stroke-width:3.478;stroke-dasharray:none;stroke-opacity:1"
       id="path11"
       cx="51.797947"
       cy="102.1889"
       rx="8.4005089"
       ry="8.6122866" /><ellipse
       style="fill:#daedeb;fill-opacity:1;stroke:#000000;stroke-width:3.478;stroke-dasharray:none;stroke-opacity:1"
       id="path11-5"
       cx="136.90019"
       cy="118.8488"
       rx="8.4005089"
       ry="8.6122866" /><ellipse
       style="fill:#daedeb;fill-opacity:1;stroke:#000000;stroke-width:3.47817;stroke-dasharray:none;stroke-opacity:1"
       id="path11-2"
       cx="51.797947"
       cy="142.39549"
       rx="8.4005089"
       ry="8.6122866" /><ellipse
       style="fill:#daedeb;fill-opacity:1;stroke:#000000;stroke-width:2.678;stroke-dasharray:none;stroke-opacity:1"
       id="path11-4"
       cx="51.797947"
       cy="121.61776"
       rx="4.8434587"
       ry="4.9655628" /><ellipse
       style="fill:#daedeb;fill-opacity:1;stroke:#000000;stroke-width:2.678;stroke-dasharray:none;stroke-opacity:1"
       id="path11-4-8"
       cx="99.851311"
       cy="97.033249"
       rx="4.8434587"
       ry="4.9655628" /><ellipse
       style="fill:#daedeb;fill-opacity:1;stroke:#000000;stroke-width:2.678;stroke-dasharray:none;stroke-opacity:1"
       id="path11-4-8-4"
       cx="145.92101"
       cy="59.841614"
       rx="4.8434587"
       ry="4.9655628" /><rect
       style="fill:#000000;fill-opacity:1;stroke:none;stroke-width:2.8056;stroke-dasharray:none;stroke-opacity:1"
       id="rect11"
       width="8.0609169"
       height="3.2243667"
       x="61.800358"
       y="100.67189"
       ry="0" /><rect
       style="fill:#000000;fill-opacity:1;stroke:none;stroke-width:2.47552;stroke-dasharray:none;stroke-opacity:1"
       id="rect11-4"
       width="6.2758212"
       height="3.2243197"
       x="-115.89775"
       y="51.576817"
       ry="0"
       transform="matrix(0.01103433,-0.99993912,0.99997763,0.00668828,0,0)" /><rect
       style="fill:#000000;fill-opacity:1;stroke:none;stroke-width:2.47552;stroke-dasharray:none;stroke-opacity:1"
       id="rect11-4-9"
       width="6.2758212"
       height="3.2243197"
       x="-108.35926"
       y="100.13374"
       ry="0"
       transform="matrix(0.01103433,-0.99993912,0.99997763,0.00668828,0,0)" /><rect
       style="fill:#000000;fill-opacity:1;stroke:none;stroke-width:4.55802;stroke-dasharray:none;stroke-opacity:1"
       id="rect11-4-9-8"
       width="21.271065"
       height="3.225076"
       x="120.92079"
       y="57.190468"
       ry="0"
       transform="matrix(0.9999947,0.00325557,-0.02266498,0.99974312,0,0)" /><rect
       style="fill:#000000;fill-opacity:1;stroke:none;stroke-width:4.03216;stroke-dasharray:none;stroke-opacity:1"
       id="rect11-4-9-8-7"
       width="21.271021"
       height="2.5238461"
       x="60.95435"
       y="-147.91795"
       ry="0"
       transform="matrix(-0.0025473,0.99999676,-0.99958051,-0.02896226,0,0)" /><rect
       style="fill:#000000;fill-opacity:1;stroke:none;stroke-width:2.47552;stroke-dasharray:none;stroke-opacity:1"
       id="rect11-4-2"
       width="6.2758212"
       height="3.2243197"
       x="-132.78197"
       y="51.704948"
       ry="0"
       transform="matrix(0.01103433,-0.99993912,0.99997763,0.00668828,0,0)" /><path
       style="fill:#000000;fill-opacity:1;stroke:none;stroke-width:2.67801;stroke-dasharray:none;stroke-opacity:1"
       d="m 98.925432,108.99531 h 3.166628 l -3.293292,3.29329 z"
       id="path12" /></g></svg>
