<?xml version="1.0" encoding="UTF-8" standalone="no"?>
<!-- Created with Inkscape (http://www.inkscape.org/) -->

<svg
   xmlns:dc="http://purl.org/dc/elements/1.1/"
   xmlns:cc="http://creativecommons.org/ns#"
   xmlns:rdf="http://www.w3.org/1999/02/22-rdf-syntax-ns#"
   xmlns:svg="http://www.w3.org/2000/svg"
   xmlns="http://www.w3.org/2000/svg"
   xmlns:xlink="http://www.w3.org/1999/xlink"
   xmlns:sodipodi="http://sodipodi.sourceforge.net/DTD/sodipodi-0.dtd"
   xmlns:inkscape="http://www.inkscape.org/namespaces/inkscape"
   id="svg2"
   sodipodi:docname="videocourses.svg"
   viewBox="0 0 801.83972 715.93799"
   version="1.1"
   inkscape:version="0.92.3 (2405546, 2018-03-11)"
   width="801.83972"
   height="715.93799">
  <defs
     id="defs4">
    <linearGradient
       id="linearGradient3645"
       inkscape:collect="always">
      <stop
         id="stop3647"
         style="stop-color:#ffffff;stop-opacity:0"
         offset="0" />
      <stop
         id="stop3649"
         style="stop-color:#ffffff"
         offset="1" />
    </linearGradient>
    <linearGradient
       id="linearGradient3865"
       y2="533.38"
       gradientUnits="userSpaceOnUse"
       x2="611.92999"
       gradientTransform="translate(22.857,279.7)"
       y1="313.38"
       x1="603.78998"
       inkscape:collect="always">
      <stop
         id="stop3861"
         style="stop-color:#000000"
         offset="0" />
      <stop
         id="stop3863"
         style="stop-color:#000000;stop-opacity:0"
         offset="1" />
    </linearGradient>
    <filter
       id="filter3887"
       height="1.4722"
       width="1.085"
       y="-0.23609"
       x="-0.042477001"
       inkscape:collect="always"
       style="color-interpolation-filters:sRGB">
      <feGaussianBlur
         id="feGaussianBlur3889"
         stdDeviation="12.216349"
         inkscape:collect="always" />
    </filter>
    <filter
       id="filter3911"
       inkscape:collect="always"
       style="color-interpolation-filters:sRGB">
      <feGaussianBlur
         id="feGaussianBlur3913"
         stdDeviation="7.2283045"
         inkscape:collect="always" />
    </filter>
    <linearGradient
       id="linearGradient3925"
       y2="309.09"
       gradientUnits="userSpaceOnUse"
       x2="915"
       gradientTransform="matrix(1.0372,0,0,1.0225,1.044,265.51)"
       y1="383.34"
       x1="191.78999"
       inkscape:collect="always">
      <stop
         id="stop3679"
         style="stop-color:#000000"
         offset="0" />
      <stop
         id="stop3681"
         style="stop-color:#ffffff"
         offset=".11878" />
      <stop
         id="stop3683"
         style="stop-color:#ffffff"
         offset=".23756" />
      <stop
         id="stop3685"
         style="stop-color:#000000"
         offset=".47315" />
      <stop
         id="stop3687"
         style="stop-color:#ffffff"
         offset="0.735" />
      <stop
         id="stop3689"
         style="stop-color:#000000"
         offset="1" />
    </linearGradient>
    <linearGradient
       id="linearGradient3927"
       y2="295.98001"
       gradientUnits="userSpaceOnUse"
       x2="780.07001"
       gradientTransform="translate(22.857,279.7)"
       y1="652.25"
       x1="243.64999"
       inkscape:collect="always">
      <stop
         id="stop3595"
         style="stop-color:#000000"
         offset="0" />
      <stop
         id="stop3597"
         style="stop-color:#ff2a2a"
         offset="1" />
    </linearGradient>
    <linearGradient
       id="linearGradient3929"
       y2="295.98001"
       gradientUnits="userSpaceOnUse"
       x2="780.07001"
       gradientTransform="translate(22.857,279.7)"
       y1="652.25"
       x1="243.64999"
       inkscape:collect="always">
      <stop
         id="stop3699"
         style="stop-color:#000000"
         offset="0" />
      <stop
         id="stop3701"
         style="stop-color:#ffffff"
         offset=".11878" />
      <stop
         id="stop3703"
         style="stop-color:#ffffff"
         offset=".23756" />
      <stop
         id="stop3705"
         style="stop-color:#000000"
         offset=".47315" />
      <stop
         id="stop3707"
         style="stop-color:#ffffff"
         offset="0.735" />
      <stop
         id="stop3709"
         style="stop-color:#000000"
         offset="1" />
    </linearGradient>
    <filter
       id="filter7268"
       inkscape:collect="always">
      <feGaussianBlur
         id="feGaussianBlur7270"
         stdDeviation="6.3728165"
         inkscape:collect="always" />
    </filter>
    <linearGradient
       id="linearGradient3079"
       y2="361.95001"
       xlink:href="#linearGradient3645"
       gradientUnits="userSpaceOnUse"
       x2="927.5"
       gradientTransform="matrix(0.88146,0,0,0.88146,132.3,317.38)"
       y1="547.15997"
       x1="695.56"
       inkscape:collect="always" />
    <linearGradient
       id="linearGradient3082"
       y2="361.72"
       xlink:href="#linearGradient3645"
       gradientUnits="userSpaceOnUse"
       x2="910.34003"
       gradientTransform="translate(22.857,279.7)"
       y1="706"
       x1="403.04001"
       inkscape:collect="always" />
    <linearGradient
       id="linearGradient3085"
       y2="361.95001"
       xlink:href="#linearGradient3645"
       gradientUnits="userSpaceOnUse"
       x2="927.5"
       gradientTransform="translate(25.714,268.27)"
       y1="619.09003"
       x1="556.42999"
       inkscape:collect="always" />
    <linearGradient
       id="linearGradient3088"
       y2="746.70001"
       gradientUnits="userSpaceOnUse"
       x2="972.38"
       gradientTransform="translate(22.857,-28.571)"
       y1="746.70001"
       x1="260.57999"
       inkscape:collect="always">
      <stop
         id="stop3737"
         style="stop-color:#2b0000"
         offset="0" />
      <stop
         id="stop3739"
         style="stop-color:#ff2a2a"
         offset="1" />
    </linearGradient>
    <linearGradient
       id="linearGradient3090"
       y2="905.56"
       gradientUnits="userSpaceOnUse"
       x2="960.32001"
       gradientTransform="translate(22.857,-28.571)"
       y1="902.10999"
       x1="255"
       inkscape:collect="always">
      <stop
         id="stop3743"
         style="stop-color:#4d4d4d"
         offset="0" />
      <stop
         id="stop3852"
         style="stop-color:#ffffff"
         offset=".16251" />
      <stop
         id="stop3745"
         style="stop-color:#000000"
         offset=".32095" />
      <stop
         id="stop3747"
         style="stop-color:#ffffff"
         offset=".52349" />
      <stop
         id="stop3749"
         style="stop-color:#000000"
         offset=".74878" />
      <stop
         id="stop3751"
         style="stop-color:#ffffff"
         offset=".92940" />
      <stop
         id="stop3753"
         style="stop-color:#000000"
         offset="1" />
    </linearGradient>
    <filter
       inkscape:menu-tooltip="Bright metallic effect for any color"
       inkscape:menu="Bevels"
       inkscape:label="Drop Shadow"
       style="color-interpolation-filters:sRGB;"
       id="filter923">
      <feGaussianBlur
         result="result6"
         stdDeviation="8"
         in="SourceGraphic"
         id="feGaussianBlur903" />
      <feComposite
         in2="SourceGraphic"
         in="result6"
         operator="xor"
         result="result10"
         id="feComposite905" />
      <feGaussianBlur
         result="result2"
         stdDeviation="8"
         id="feGaussianBlur907" />
      <feComposite
         in2="SourceGraphic"
         operator="atop"
         in="result10"
         result="result91"
         id="feComposite909" />
      <feComposite
         result="result4"
         in="result2"
         operator="xor"
         in2="result91"
         id="feComposite911" />
      <feGaussianBlur
         in="result4"
         result="result3"
         stdDeviation="4"
         id="feGaussianBlur913" />
      <feSpecularLighting
         result="result5"
         specularExponent="5"
         specularConstant="1.1"
         surfaceScale="18"
         id="feSpecularLighting917">
        <feDistantLight
           azimuth="235"
           elevation="55"
           id="feDistantLight915" />
      </feSpecularLighting>
      <feComposite
         in="result3"
         k3="1.1"
         k2="0.5"
         operator="arithmetic"
         result="result7"
         in2="result5"
         k1="0.5"
         id="feComposite919" />
      <feComposite
         in="result7"
         operator="atop"
         in2="SourceGraphic"
         result="fbSourceGraphic"
         id="feComposite921" />
      <feColorMatrix
         result="fbSourceGraphicAlpha"
         in="fbSourceGraphic"
         values="0 0 0 -1 0 0 0 0 -1 0 0 0 0 -1 0 0 0 0 1 0"
         id="feColorMatrix925" />
      <feFlood
         id="feFlood927"
         flood-opacity="0.498039"
         flood-color="rgb(0,0,0)"
         result="flood"
         in="fbSourceGraphic" />
      <feComposite
         in2="fbSourceGraphic"
         id="feComposite929"
         in="flood"
         operator="in"
         result="composite1" />
      <feGaussianBlur
         id="feGaussianBlur931"
         in="composite1"
         stdDeviation="3"
         result="blur" />
      <feOffset
         id="feOffset933"
         dx="6"
         dy="6"
         result="offset" />
      <feComposite
         in2="offset"
         id="feComposite935"
         in="fbSourceGraphic"
         operator="over"
         result="fbSourceGraphic" />
      <feColorMatrix
         result="fbSourceGraphicAlpha"
         in="fbSourceGraphic"
         values="0 0 0 -1 0 0 0 0 -1 0 0 0 0 -1 0 0 0 0 1 0"
         id="feColorMatrix937" />
      <feFlood
         id="feFlood939"
         flood-opacity="0.498039"
         flood-color="rgb(0,0,0)"
         result="flood"
         in="fbSourceGraphic" />
      <feComposite
         in2="fbSourceGraphic"
         id="feComposite941"
         in="flood"
         operator="in"
         result="composite1" />
      <feGaussianBlur
         id="feGaussianBlur943"
         in="composite1"
         stdDeviation="3"
         result="blur" />
      <feOffset
         id="feOffset945"
         dx="6"
         dy="6"
         result="offset" />
      <feComposite
         in2="offset"
         id="feComposite947"
         in="fbSourceGraphic"
         operator="over"
         result="composite2" />
    </filter>
  </defs>
  <sodipodi:namedview
     id="base"
     bordercolor="#666666"
     inkscape:pageshadow="2"
     inkscape:window-y="-9"
     pagecolor="#ffffff"
     inkscape:window-height="1001"
     inkscape:window-maximized="1"
     inkscape:zoom="0.49497475"
     inkscape:window-x="-9"
     showgrid="false"
     borderopacity="1.0"
     inkscape:current-layer="layer1"
     inkscape:cx="-310.88928"
     inkscape:cy="414.31019"
     inkscape:snap-global="false"
     inkscape:window-width="1920"
     inkscape:pageopacity="0.0"
     inkscape:document-units="px">
    <inkscape:grid
       id="grid2819"
       enabled="true"
       visible="true"
       snapvisiblegridlinesonly="true"
       type="xygrid"
       empspacing="5"
       originx="-22.8515"
       originy="-28.545642" />
  </sodipodi:namedview>
  <g
     id="layer1"
     inkscape:label="Capa 1"
     inkscape:groupmode="layer"
     transform="translate(-208.2715,-360.84641)">
    <g
       id="g4097">
      <path
         id="path3691"
         sodipodi:nodetypes="ccccccccsccc"
         style="fill:#b3b3b3;fill-rule:evenodd;stroke:url(#linearGradient3925);stroke-width:5"
         d="m 265.23,488.11 141.19,0.50507 c 31.116,0 55.586,28.077 55.586,58.752 l 448.1,0.21896 c 30.372,0 53.849,37.844 53.849,67.786 l -0.0685,359.06 c -5.5667,22.635 -7.3222,20.686 -36.135,22.732 l -605.87,77.07897 c -30.372,0 -37.741,1.6499 -42.885,-27.848 -13.332,-76.44997 -44.915,-340.58997 -68.225,-504.59997 0,-29.942 24.081,-53.681 54.453,-53.681 h -3e-5 z"
         inkscape:connector-curvature="0" />
      <path
         id="rect2816"
         sodipodi:nodetypes="ccccccccscc"
         style="fill:url(#linearGradient3927);fill-rule:evenodd;stroke:url(#linearGradient3929);stroke-width:5"
         d="m 285.36,506.29 h 120 c 30,0 52.5,22.5 52.5,52.5 l 449.29,4.2857 c 29.283,0 52.857,23.574 52.857,52.857 l -8.673,326.92 c 0,29.283 4.752,41.674 -24.531,41.674 l -611.71,86.984 c -28.778,-6.566 -29.202,-2.5889 -33.935,-30.215 -24.331,-142.03 -27.866,-320.61 -42.234,-482.5 0,-29.283 17.156,-52.5 46.439,-52.5 z"
         inkscape:connector-curvature="0" />
      <path
         id="path3854"
         sodipodi:nodetypes="ccccccc"
         style="fill:url(#linearGradient3865);stroke:#000000;stroke-width:1px;filter:url(#filter3887)"
         d="m 425.72,590.06 c 184.9,-0.3245 329.77,0.26124 501.43,-0.50102 9.0744,-1.2813 14.513,1.5033 21.504,6.9067 27.828,22.17 1.3092,34.999 -11.502,50.184 l -652.15,201.07 c -1.8803,-9.4171 -24.809,-215.31 -25.773,-226.21 98.999,2.4105 175.44,11.726 166.49,-31.451 z"
         inkscape:connector-curvature="0" />
      <path
         id="path3601"
         sodipodi:nodetypes="cccsscccccc"
         style="fill:url(#linearGradient3088);fill-rule:evenodd;stroke:url(#linearGradient3090);stroke-width:5"
         d="m 457.86,603.79 h 480 c 29.283,0 52.857,20.819 52.857,46.679 0,0 -23.666,308.4 -26.01,321.36 -4.0621,22.442 -4.1261,22.759 -33.195,26.292 l -618.42,75.161 c -22.197,1.4697 -25.744,-3.8211 -18.076,-3.7941 20.775,-70.015 -6.8164,-279.26 -17.159,-413.19 1.194,-8.5623 7.8571,-15 15,-15 h 135 c 16.461,-2.5011 26.87,-19.526 30,-37.5 z"
         inkscape:connector-curvature="0" />
      <path
         id="path3640"
         sodipodi:nodetypes="ccccccc"
         style="opacity:0.753;fill:url(#linearGradient3085)"
         d="m 490.71,622.36 h 412.5 c 45,0 70.102,-3.1828 70.102,41.817 l -21.642,243.18 c 0,22.5 -20.48,36.919 -47.127,45 l -58.71,7.388 c -67.26,-124.55 -134.86,-255.04 -355.12,-337.39"
         inkscape:connector-curvature="0" />
      <path
         id="path3755"
         sodipodi:nodetypes="ccccc"
         style="opacity:0.75095999;fill:url(#linearGradient3082)"
         d="M 315.25,660.12 C 605.57,642.87 706.6,845.63 776.98,967.86 L 338.27,1031.2 307.2,671.75 c -0.2128,-6.1097 2.7539,-11.983 8.054,-11.633 z"
         inkscape:connector-curvature="0" />
      <g
         id="layer1-5"
         inkscape:label="Layer 1"
         transform="matrix(-1,0,0,1,852.89,602.34)">
        <path
           id="path6285"
           sodipodi:nodetypes="ccccc"
           style="opacity:0.75;fill:#000000;fill-rule:evenodd;stroke:#000000;stroke-width:1.16680002px;filter:url(#filter7268)"
           d="m 31.104,341.86 132.68,-0.38 c 71.64,-323.88 203.27,28.21 243.85,-258.04 l -66.486,2.1027 c -8.89,202.55 -208.25,-66.802 -310.04,256.32 z"
           inkscape:connector-curvature="0" />
        <path
           id="path2160"
           sodipodi:nodetypes="ccccc"
           style="fill:#000000;fill-rule:evenodd;stroke:#000000;stroke-width:1.20930004px"
           sodipodi:insensitive="true"
           d="m 5.819,327.04 144.34,-0.91 c 65.43,-330.51 201.74,30.61 243.31,-269.6 l -75.055,2.7141 c -6.64,207.33 -207.85,-73.62 -312.6,267.8 z"
           inkscape:connector-curvature="0" />
        <path
           id="path2258"
           sodipodi:nodetypes="ccccc"
           style="fill:#ffffff;fill-rule:evenodd;stroke:#000000;stroke-width:1.16680002px"
           d="m 12.105,319.78 132.67,-0.37746 c 71.64,-323.88 203.28,28.21 243.86,-258.04 l -66.486,2.1027 c -8.9,202.55 -208.26,-66.801 -310.04,256.32 z"
           inkscape:connector-curvature="0" />
        <path
           id="path2264"
           sodipodi:nodetypes="ccccc"
           style="fill:#000000;fill-rule:evenodd;stroke:#000000;stroke-width:1.04910004px"
           sodipodi:insensitive="true"
           d="m 17.869,321.3 118.33,-1.34 c 67.88,-328.3 213.83,15.92 248.13,-259.62 l -57.6,1.037 c -11.55,215.97 -203.39,-61.615 -308.86,259.92 z"
           inkscape:connector-curvature="0" />
        <path
           id="path2272"
           style="fill:none;stroke:#000000;stroke-width:8"
           d="m 319.26,73.943 68.414,-0.4852"
           inkscape:connector-curvature="0" />
        <use
           id="use3245"
           xlink:href="#path2272"
           transform="translate(-1.9408,14.071)"
           height="400"
           width="400"
           y="0"
           x="0" />
        <use
           id="use3247"
           xlink:href="#use3245"
           transform="translate(-3.3964,14.071)"
           height="400"
           width="400"
           y="0"
           x="0" />
        <use
           id="use3249"
           xlink:href="#use3245"
           transform="matrix(1.0317,0,0,1,-18.196,28.142)"
           height="400"
           width="400"
           y="0"
           x="0" />
        <use
           id="use3251"
           xlink:href="#use3245"
           transform="matrix(1.0697,0.015926,-0.017039,0.99987,-36.839,36.14)"
           height="400"
           width="400"
           y="0"
           x="0" />
        <path
           id="path3275"
           sodipodi:nodetypes="ccccc"
           style="fill:#000000;fill-rule:evenodd;stroke:#000000;stroke-width:1px"
           d="m 229.99,145.75 113.54,32.994 5.3372,-4.3668 -109.66,-29.112 -9.2189,0.4852 z"
           inkscape:connector-curvature="0" />
        <path
           id="path3277"
           sodipodi:nodetypes="ccccc"
           style="fill:#000000;fill-rule:evenodd;stroke:#000000;stroke-width:1px"
           d="m 257.16,146.24 100.92,21.834 2.9112,-6.065 -95.585,-16.254 -8.2485,0.48521 z"
           inkscape:connector-curvature="0" />
        <path
           id="path3281"
           sodipodi:nodetypes="ccccc"
           style="fill:#000000;fill-rule:evenodd;stroke:#000000;stroke-width:1px"
           d="m 279.62,143.71 87.721,8.4209 4.8033,-9.163 -78.342,-3.8013 -14.182,4.5434 z"
           inkscape:connector-curvature="0" />
        <path
           id="path3283"
           sodipodi:nodetypes="ccccc"
           style="fill:#000000;fill-rule:evenodd;stroke:#000000;stroke-width:1px"
           d="m 224.16,147.45 104.32,37.846 8.4911,-1.6982 -107.96,-36.876 -4.852,0.72781 z"
           inkscape:connector-curvature="0" />
        <path
           id="path3285"
           sodipodi:nodetypes="ccccc"
           style="fill:#000000;fill-rule:evenodd;stroke:#000000;stroke-width:1px"
           d="m 150.66,148.91 93.644,23.29 8.9763,-0.2426 -96.07,-24.503 z"
           inkscape:connector-curvature="0" />
        <path
           id="path3287"
           sodipodi:nodetypes="ccccc"
           style="fill:#000000;fill-rule:evenodd;stroke:#000000;stroke-width:1px"
           d="m 179.04,145.51 86.852,28.384 16.012,4.3668 -93.644,-33.479 -9.2189,0.72781 z"
           inkscape:connector-curvature="0" />
        <path
           id="path3289"
           sodipodi:nodetypes="ccccc"
           style="fill:#000000;fill-rule:evenodd;stroke:#000000;stroke-width:1px"
           d="m 203.3,145.51 94.857,35.905 18.438,3.1538 -109.17,-39.302 -4.1242,0.2426 z"
           inkscape:connector-curvature="0" />
        <path
           id="path3291"
           style="fill:#000000;fill-rule:evenodd;stroke:#000000;stroke-width:1px"
           d="m 231.44,174.87 -89.278,-23.775 -12.13,3.3964 87.822,24.745 13.586,-4.3668 z"
           inkscape:connector-curvature="0" />
        <path
           id="path3293"
           style="fill:#000000;fill-rule:evenodd;stroke:#000000;stroke-width:1px"
           d="m 210.58,184.57 -88.307,-27.171 -13.101,6.7929 93.159,25.716 8.2485,-5.3372 z"
           inkscape:connector-curvature="0" />
        <path
           id="path3295"
           sodipodi:nodetypes="ccccc"
           style="fill:#000000;fill-rule:evenodd;stroke:#000000;stroke-width:1px"
           d="m 195.54,196.7 -91.704,-26.201 -8.2485,3.8816 91.704,27.657 8.2485,-5.3372 z"
           inkscape:connector-curvature="0" />
        <path
           id="path3297"
           sodipodi:nodetypes="ccccc"
           style="fill:#000000;fill-rule:evenodd;stroke:#000000;stroke-width:1px"
           d="m 184.38,211.26 -100.44,-28.142 -4.852,6.3077 102.38,27.657 2.9112,-5.8224 z"
           inkscape:connector-curvature="0" />
        <path
           id="path2184"
           sodipodi:nodetypes="ccccc"
           style="fill:#000000;fill-rule:evenodd;stroke:#000000;stroke-width:1px"
           d="m 70.355,200.1 103.35,27.657 -1.4556,8.2485 -109.17,-30.083 7.2781,-5.8224 z"
           inkscape:connector-curvature="0" />
        <path
           id="path2186"
           sodipodi:nodetypes="ccccc"
           style="fill:#000000;fill-rule:evenodd;stroke:#000000;stroke-width:1px"
           d="m 58.71,214.65 107.72,33.964 -3.3964,10.674 -109.17,-36.39 4.852,-8.2485 z"
           inkscape:connector-curvature="0" />
        <path
           id="path2188"
           sodipodi:nodetypes="ccccc"
           style="fill:#000000;fill-rule:evenodd;stroke:#000000;stroke-width:1px"
           d="m 46.094,235.52 110.14,36.39 -2.426,10.189 -113.05,-39.302 5.3372,-7.2781 z"
           inkscape:connector-curvature="0" />
        <path
           id="path2190"
           sodipodi:nodetypes="ccccc"
           style="fill:#000000;fill-rule:evenodd;stroke:#000000;stroke-width:1px"
           d="m 34.449,254.92 c 38.816,14.071 77.633,35.972 116.45,42.213 l -0.97,7.77 c -47.87,-7.82 -78.928,-26.85 -118.39,-40.27 l 2.9112,-9.7041 z"
           inkscape:connector-curvature="0" />
        <path
           id="path2192"
           sodipodi:nodetypes="ccccc"
           style="fill:#000000;fill-rule:evenodd;stroke:#000000;stroke-width:1px"
           d="m 26.201,276.27 c 40.11,13.909 71.691,36.348 120.33,41.728 v 3.8816 l -124.21,-35.42 3.8816,-10.189 z"
           inkscape:connector-curvature="0" />
        <path
           id="path2194"
           sodipodi:nodetypes="ccccc"
           style="fill:#000000;fill-rule:evenodd;stroke:#000000;stroke-width:1px"
           d="m 17.953,297.14 87.822,20.379 0.48521,3.8816 -92.189,-14.556 3.8816,-9.7041 z"
           inkscape:connector-curvature="0" />
        <path
           id="path2196"
           sodipodi:nodetypes="ccccc"
           style="fill:none;stroke:#ffffff;stroke-width:1px;stroke-opacity:0.94118"
           d="m 23.775,320.43 109.17,-0.9704 c 2.5562,-19.534 6.3695,-34.04 10.189,-48.52 l -99.462,-3.4 c -7.549,13.96 -13.57,34.02 -19.893,52.89 z"
           inkscape:connector-curvature="0" />
        <path
           id="path3170"
           sodipodi:nodetypes="ccccc"
           style="fill:none;stroke:#ffffff;stroke-width:1px;stroke-opacity:0.94118"
           d="m 47.55,260.26 97.526,2.9112 c 4.9066,-16.793 11.941,-32.522 19.408,-48.035 l -85.396,-7.2781 c -17.609,23.677 -23.878,37.431 -31.538,52.402 z"
           inkscape:connector-curvature="0" />
        <path
           id="path3172"
           sodipodi:nodetypes="ccccc"
           style="fill:#552200;fill-rule:evenodd;stroke:#ffffff;stroke-width:1px;stroke-opacity:0.94118"
           d="m 47.55,260.26 97.526,2.9112 c 4.9066,-16.793 11.941,-32.522 19.408,-48.035 l -85.396,-7.2781 c -17.609,23.677 -23.878,37.431 -31.538,52.402 z"
           inkscape:connector-curvature="0" />
        <path
           id="path3174"
           sodipodi:nodetypes="ccccc"
           style="fill:#803300;fill-rule:evenodd;stroke:#ffffff;stroke-width:1px;stroke-opacity:0.94118"
           d="m 81.999,203.01 84.426,7.2781 c 11.7,-21.16 28.438,-31.067 40.272,-39.787 L 144.106,160.797 C 125.041,166.5212 93.542,189.494 82,203.01 Z"
           inkscape:connector-curvature="0" />
        <path
           id="path3176"
           sodipodi:nodetypes="ccccc"
           style="fill:#aa4400;fill-rule:evenodd;stroke:#ffffff;stroke-width:1px;stroke-opacity:0.94118"
           d="m 152.27,158.37 58.224,10.189 c 21.404,-6.1186 20.674,-8.2623 51.432,-3.8816 l -45.609,-10.674 c -19.065,0.87218 -39.405,-0.90035 -64.047,4.3668 z"
           inkscape:connector-curvature="0" />
        <path
           id="path3180"
           sodipodi:nodetypes="ccccc"
           style="fill:#803300;fill-rule:evenodd;stroke:#ffffff;stroke-width:1px"
           d="m 233.87,154 51.432,15.527 c 32.594,5.6544 43.163,5.8662 62.106,-10.189 l -48.035,-15.041 c -13.877,9.4869 -33.565,14.407 -65.503,9.7041 z"
           inkscape:connector-curvature="0" />
        <path
           id="path4151"
           sodipodi:nodetypes="ccccc"
           style="fill:#552200;fill-rule:evenodd;stroke:#ffffff;stroke-width:1px;stroke-opacity:0.94118"
           d="m 302.77,141.39 48.035,14.556 c 8.4357,-10.053 15.574,-24.146 19.893,-40.757 l -48.52,-5.8225 c -4.5062,13.599 -7.4955,19.569 -19.408,32.023 z"
           inkscape:connector-curvature="0" />
        <path
           id="path5122"
           sodipodi:nodetypes="ccccc"
           style="fill:#2b1100;fill-rule:evenodd;stroke:#ffffff;stroke-width:1px"
           d="m 323.63,104.51 48.52,4.3668 c 5.0992,-17.851 6.9891,-31.423 8.2485,-44.154 l -50.946,0.4852 c -0.71653,14.325 -2.5197,27.563 -5.8224,39.302 z"
           inkscape:connector-curvature="0" />
      </g>
      <path
         id="path3891"
         sodipodi:nodetypes="ccccccc"
         style="opacity:0.753;fill:url(#linearGradient3079);filter:url(#filter3911)"
         d="m 542.18,629.5 h 363.6 c 39.666,0 61.792,-2.8055 61.792,36.86 l -19.077,214.36 c 0,19.833 -18.052,32.542 -41.54,39.666 l -51.75,6.5 c -59.29,-109.78 -118.88,-224.81 -313.02,-297.39"
         inkscape:connector-curvature="0" />
    </g>
    <rect
       id="rect7739"
       style="fill:#2c2c2c"
       transform="rotate(90)"
       height="2.1833999"
       width="0"
       y="614.52002"
       x="724.63" />
    <rect
       style="color:#000000;clip-rule:nonzero;display:inline;overflow:visible;visibility:visible;opacity:1;isolation:auto;mix-blend-mode:normal;color-interpolation:sRGB;color-interpolation-filters:linearRGB;solid-color:#000000;solid-opacity:1;fill:none;fill-opacity:1;fill-rule:nonzero;stroke:#15111d;stroke-width:1.5;stroke-linecap:butt;stroke-linejoin:round;stroke-miterlimit:4;stroke-dasharray:none;stroke-dashoffset:0;stroke-opacity:1;marker:none;color-rendering:auto;image-rendering:auto;shape-rendering:auto;text-rendering:auto;enable-background:accumulate;filter:url(#filter923)"
       id="rect908"
       width="454.56863"
       height="94.954338"
       x="382.01773"
       y="361.59641"
       ry="40.406101" />
    <text
       xml:space="preserve"
       style="font-style:normal;font-variant:normal;font-weight:normal;font-stretch:normal;font-size:67.86534882px;line-height:125%;font-family:Sans;-inkscape-font-specification:'Sans, Normal';text-align:start;letter-spacing:0px;word-spacing:0px;writing-mode:lr-tb;text-anchor:start;fill:#000000;fill-opacity:1;stroke:none;stroke-width:3.77029705px;stroke-linecap:butt;stroke-linejoin:miter;stroke-opacity:1"
       x="486.49301"
       y="366.64603"
       id="text906"
       transform="scale(0.84146809,1.1883992)"><tspan
         sodipodi:role="line"
         id="tspan904"
         x="486.49301"
         y="366.64603"
         style="stroke-width:3.77029705px">Video Courses</tspan></text>
  </g>
  <metadata
     id="metadata93">
    <rdf:RDF>
      <cc:Work>
        <dc:format>image/svg+xml</dc:format>
        <dc:type
           rdf:resource="http://purl.org/dc/dcmitype/StillImage" />
        <cc:license
           rdf:resource="http://creativecommons.org/licenses/publicdomain/" />
        <dc:publisher>
          <cc:Agent
             rdf:about="http://openclipart.org/">
            <dc:title>Openclipart</dc:title>
          </cc:Agent>
        </dc:publisher>
        <dc:title />
        <dc:date>2012-02-08T16:26:47</dc:date>
        <dc:description>Icono de carpeta inspirado en la idea de ilnanny, con la ayuda de algunos elementos de la galeria.</dc:description>
        <dc:source>https://openclipart.org/detail/168004/folder-icon-red-video-by-roshellin</dc:source>
        <dc:creator>
          <cc:Agent>
            <dc:title>roshellin</dc:title>
          </cc:Agent>
        </dc:creator>
        <dc:subject>
          <rdf:Bag>
            <rdf:li>folder</rdf:li>
            <rdf:li>icon</rdf:li>
            <rdf:li>red</rdf:li>
            <rdf:li>roshellin</rdf:li>
            <rdf:li>video</rdf:li>
          </rdf:Bag>
        </dc:subject>
      </cc:Work>
      <cc:License
         rdf:about="http://creativecommons.org/licenses/publicdomain/">
        <cc:permits
           rdf:resource="http://creativecommons.org/ns#Reproduction" />
        <cc:permits
           rdf:resource="http://creativecommons.org/ns#Distribution" />
        <cc:permits
           rdf:resource="http://creativecommons.org/ns#DerivativeWorks" />
      </cc:License>
    </rdf:RDF>
  </metadata>
</svg>
