<?xml version="1.0" encoding="UTF-8" standalone="no"?>
<!-- Created with Inkscape (http://www.inkscape.org/) -->
<svg
   xmlns:dc="http://purl.org/dc/elements/1.1/"
   xmlns:cc="http://creativecommons.org/ns#"
   xmlns:rdf="http://www.w3.org/1999/02/22-rdf-syntax-ns#"
   xmlns:svg="http://www.w3.org/2000/svg"
   xmlns="http://www.w3.org/2000/svg"
   xmlns:sodipodi="http://sodipodi.sourceforge.net/DTD/sodipodi-0.dtd"
   xmlns:inkscape="http://www.inkscape.org/namespaces/inkscape"
   width="225.35432"
   height="158.03149"
   id="svg2"
   sodipodi:version="0.32"
   inkscape:version="0.46"
   version="1.0"
   sodipodi:docname="logical_masking.svg"
   inkscape:output_extension="org.inkscape.output.svg.inkscape">
  <defs
     id="defs4">
    <marker
       inkscape:stockid="Arrow1Lend"
       orient="auto"
       refY="0"
       refX="0"
       id="Arrow1Lend"
       style="overflow:visible">
      <path
         id="path3187"
         d="M 0,0 L 5,-5 L -12.5,0 L 5,5 L 0,0 z"
         style="fill-rule:evenodd;stroke:#000000;stroke-width:1pt;marker-start:none"
         transform="matrix(-0.8,0,0,-0.8,-10,0)" />
    </marker>
    <inkscape:perspective
       sodipodi:type="inkscape:persp3d"
       inkscape:vp_x="0 : 526.18109 : 1"
       inkscape:vp_y="0 : 1000 : 0"
       inkscape:vp_z="744.09448 : 526.18109 : 1"
       inkscape:persp3d-origin="372.04724 : 350.78739 : 1"
       id="perspective10" />
  </defs>
  <sodipodi:namedview
     id="base"
     pagecolor="#ffffff"
     bordercolor="#666666"
     borderopacity="1.0"
     gridtolerance="10000"
     guidetolerance="10"
     objecttolerance="10"
     inkscape:pageopacity="0.0"
     inkscape:pageshadow="2"
     inkscape:zoom="1.979899"
     inkscape:cx="285.09642"
     inkscape:cy="143.66935"
     inkscape:document-units="px"
     inkscape:current-layer="layer1"
     showgrid="false"
     units="mm"
     inkscape:window-width="1920"
     inkscape:window-height="1005"
     inkscape:window-x="0"
     inkscape:window-y="25" />
  <metadata
     id="metadata7">
    <rdf:RDF>
      <cc:Work
         rdf:about="">
        <dc:format>image/svg+xml</dc:format>
        <dc:type
           rdf:resource="http://purl.org/dc/dcmitype/StillImage" />
      </cc:Work>
    </rdf:RDF>
  </metadata>
  <g
     inkscape:label="Layer 1"
     inkscape:groupmode="layer"
     id="layer1">
    <path
       style="fill:none;fill-rule:evenodd;stroke:#000000;stroke-width:1px;stroke-linecap:butt;stroke-linejoin:miter;stroke-opacity:1"
       d="M 114.65232,48.873016 C 186.87823,95.340038 116.67263,132.71568 116.67263,132.71568 L 115.66247,132.21061 L 114.65232,48.873016 z"
       id="path2383" />
    <path
       style="fill:none;fill-rule:evenodd;stroke:#000000;stroke-width:1.00962269px;stroke-linecap:butt;stroke-linejoin:miter;stroke-opacity:1"
       d="M 114.60771,60.994846 L 39.440567,60.994846"
       id="path2385" />
    <path
       style="fill:none;fill-rule:evenodd;stroke:#000000;stroke-width:1px;stroke-linecap:butt;stroke-linejoin:miter;stroke-opacity:1"
       d="M 115.1574,123.11923 L 41.416257,123.11923"
       id="path2387" />
    <path
       style="fill:#bf602c;fill-opacity:1;stroke:none;stroke-width:1.20000005;stroke-miterlimit:4;stroke-dasharray:none;stroke-opacity:1"
       d="M 116.4158,128.37495 C 116.25615,126.49803 115.97871,108.17069 115.79926,87.647518 L 115.47308,50.332679 L 117.93199,51.99838 C 125.5689,57.171432 135.30414,66.204433 139.47329,71.985693 C 141.85862,75.293382 144.63972,81.191855 145.62891,85.041178 C 147.89473,93.858438 145.38708,104.02686 138.80478,112.7132 C 134.20176,118.78757 124.60294,127.33395 118.54864,130.74843 L 116.70617,131.78752 L 116.4158,128.37495 z"
       id="path2389" />
    <path
       style="fill:none;fill-rule:evenodd;stroke:#000000;stroke-width:1px;stroke-linecap:butt;stroke-linejoin:miter;stroke-opacity:1"
       d="M 221.72849,91.804498 L 147.98735,91.804498"
       id="path3161" />
    <text
       xml:space="preserve"
       style="font-size:40px;font-style:italic;font-variant:normal;font-weight:normal;font-stretch:normal;text-align:start;line-height:125%;writing-mode:lr-tb;text-anchor:start;fill:#000000;fill-opacity:1;stroke:none;stroke-width:1px;stroke-linecap:butt;stroke-linejoin:miter;stroke-opacity:1;font-family:LMMathItalic12;-inkscape-font-specification:LMMathItalic12 Italic"
       x="44.951786"
       y="147.3629"
       id="text3163"
       sodipodi:linespacing="125%"><tspan
         sodipodi:role="line"
         id="tspan3165"
         x="44.951786"
         y="147.3629">0</tspan></text>
    <text
       xml:space="preserve"
       style="font-size:40px;font-style:italic;font-variant:normal;font-weight:normal;font-stretch:normal;text-align:start;line-height:125%;writing-mode:lr-tb;text-anchor:start;fill:#000000;fill-opacity:1;stroke:none;stroke-width:1px;stroke-linecap:butt;stroke-linejoin:miter;stroke-opacity:1;font-family:LMMathItalic12;-inkscape-font-specification:LMMathItalic12 Italic"
       x="163.30116"
       y="113.29648"
       id="text3167"
       sodipodi:linespacing="125%"><tspan
         sodipodi:role="line"
         id="tspan3169"
         x="163.30116"
         y="113.29648">0</tspan></text>
    <text
       xml:space="preserve"
       style="font-size:40px;font-style:italic;font-variant:normal;font-weight:normal;font-stretch:normal;text-align:start;line-height:125%;writing-mode:lr-tb;text-anchor:start;fill:#000000;fill-opacity:1;stroke:none;stroke-width:1px;stroke-linecap:butt;stroke-linejoin:miter;stroke-opacity:1;font-family:LMMathItalic12;-inkscape-font-specification:LMMathItalic12 Italic"
       x="44.103168"
       y="81.981758"
       id="text3171"
       sodipodi:linespacing="125%"><tspan
         sodipodi:role="line"
         id="tspan3173"
         x="44.103168"
         y="81.981758">0</tspan></text>
    <text
       xml:space="preserve"
       style="font-size:40px;font-style:italic;font-variant:normal;font-weight:normal;font-stretch:normal;text-align:start;line-height:125%;writing-mode:lr-tb;text-anchor:start;fill:#000000;fill-opacity:1;stroke:none;stroke-width:1px;stroke-linecap:butt;stroke-linejoin:miter;stroke-opacity:1;font-family:LMMathItalic12;-inkscape-font-specification:LMMathItalic12 Italic"
       x="90.57019"
       y="81.476677"
       id="text3175"
       sodipodi:linespacing="125%"><tspan
         sodipodi:role="line"
         id="tspan3177"
         x="90.57019"
         y="81.476677">1</tspan></text>
    <path
       style="fill:none;fill-rule:evenodd;stroke:#000000;stroke-width:1px;stroke-linecap:butt;stroke-linejoin:miter;marker-end:url(#Arrow1Lend);stroke-opacity:1"
       d="M 65.659917,73.621753 C 89.903577,72.6116 89.903577,72.6116 89.903577,72.6116"
       id="path3179" />
    <rect
       style="fill:#bf602c;fill-opacity:1;stroke:none;stroke-width:1.20000005;stroke-miterlimit:4;stroke-dasharray:none;stroke-opacity:1"
       id="rect3959"
       width="32.324883"
       height="32.829956"
       x="8.0812206"
       y="44.832409" />
    <path
       style="fill:none;fill-rule:evenodd;stroke:#000000;stroke-width:1px;stroke-linecap:butt;stroke-linejoin:miter;stroke-opacity:1"
       d="M 30.304577,4.9313799 C 54.043167,5.4364559 53.538087,4.9313799 53.538087,4.9313799 L 48.487327,18.568439 L 31.819807,24.124278 L 36.870577,35.235956 L 25.758897,36.751185 L 28.789357,50.388245 L 17.172593,30.69027 L 27.779197,27.659812 L 21.718283,19.073516 L 40.406107,12.507524 L 30.304577,4.9313799 z"
       id="path3961" />
    <path
       style="fill:#ff0000;fill-opacity:1;stroke:none;stroke-width:1.20000005;stroke-miterlimit:4;stroke-dasharray:none;stroke-opacity:1"
       d="M 22.372503,38.039047 C 20.187163,34.288765 18.482533,31.159029 18.584433,31.084076 C 18.686333,31.009123 19.678843,30.694925 20.790013,30.385864 C 28.069267,28.36119 28.683147,28.126572 28.429677,27.466023 C 28.285847,27.091211 26.992967,25.168784 25.556607,23.193972 C 24.120247,21.219159 23.028373,19.530886 23.130213,19.442255 C 23.232077,19.353619 27.406517,17.853795 32.406767,16.109307 C 37.407027,14.364819 41.570667,12.879895 41.659317,12.809472 C 41.747977,12.739054 39.929697,11.260661 37.618707,9.5241679 C 35.307737,7.7876649 33.196437,6.1699519 32.926967,5.9292269 C 32.649227,5.6811439 36.746737,5.5506369 42.386277,5.6279539 C 52.073797,5.7607639 52.327237,5.7909269 52.020147,6.7745079 C 51.846677,7.3300919 50.858397,10.057503 49.823937,12.835423 L 47.943137,17.886186 L 39.698257,20.705259 C 35.163557,22.255737 31.378257,23.749626 31.286467,24.025004 C 31.194677,24.300382 32.147867,26.741213 33.404667,29.449069 C 34.661457,32.156929 35.689767,34.448485 35.689767,34.541424 C 35.689767,34.634363 33.303277,35.002069 30.386467,35.358552 C 26.827367,35.793539 25.083167,36.214272 25.083167,36.637819 C 25.083167,36.984938 25.434787,38.785116 25.864547,40.63822 C 26.294317,42.49132 26.578417,44.198806 26.495897,44.432621 C 26.413377,44.666426 24.557847,41.789324 22.372503,38.039042 L 22.372503,38.039047 z"
       id="path3963" />
  </g>
</svg>
